<svg xmlns="http://www.w3.org/2000/svg" width="48" height="48" viewBox="0 0 48 48"><rect width="48" height="48" fill="none"/><circle cx="24" cy="24" r="24" fill="#ffa955"/><path d="M26.375,5.938A20.438,20.438,0,1,1,5.938,26.375,20.437,20.437,0,0,1,26.375,5.938Zm0,.563A19.875,19.875,0,1,0,46.25,26.375,19.875,19.875,0,0,0,26.375,6.5Z" transform="translate(-2.375 -2.375)" fill="#fff" opacity="0.9"/><path d="M41.221,24.7c1.595,3.962-1.5,5.629-1.5,5.629,3.14,1.052,3.958,3.018,3.072,6.312-1,3.73-6.843,3.792-6.843,3.792l.011,3.762-2.377.029-.02-3.751-1.975.025.006,3.754-2.409.03-.023-3.751-4.733.06.43-3.133.24.011q.587.028,1.175.015a1.65,1.65,0,0,0,.225-.019.977.977,0,0,0,.962-.811,1.541,1.541,0,0,0,.059-.5s0-9.032-.046-10.351a.978.978,0,0,0-.974-.915H24.751l-.373-2.676,4.776-.034.041-3.734,2.4-.038-.019,3.744c1.014-.028,1.915-.016,1.915-.016l.03-3.743,2.445-.031-.011,3.734C37.361,22.032,40.313,22.445,41.221,24.7ZM31.548,37.476s4.113.463,5.519-.586a2.562,2.562,0,0,0,.485-3.839c-.812-.971-4.395-.954-5.933-.757Zm3.726-7.823a2.394,2.394,0,0,0,1.782-2.927c-.534-1.513-1.851-1.872-5.6-1.9l.056,5.095A15.263,15.263,0,0,0,35.275,29.653Z" transform="translate(-9.751 -7.344)" fill="#fff"/></svg>