<svg xmlns="http://www.w3.org/2000/svg" width="48" height="48" viewBox="0 0 48 48"><rect width="48" height="48" fill="none"/><circle cx="24" cy="24" r="24" fill="#484848"/><path d="M26.375,5.938A20.438,20.438,0,1,1,5.938,26.375,20.437,20.437,0,0,1,26.375,5.938Zm0,.563A19.875,19.875,0,1,0,46.25,26.375,19.875,19.875,0,0,0,26.375,6.5Z" transform="translate(-2.375 -2.375)" fill="#fff" opacity="0.9"/><path d="M27.109,33.367l7.453,4.157v6.639Zm15.469,0-7.453,10.8V37.523Zm-8.016-3.757v6.98l-7.453-3.8Zm.563,0,7.453,3.182-7.453,3.8Zm0-10.469,7.453,13.054-7.453-3.433Zm-.563,0v9.621l-7.453,3.433Z" transform="translate(-10.844 -7.656)" fill="#fff" fill-rule="evenodd"/></svg>