<svg xmlns="http://www.w3.org/2000/svg" width="48" height="48" viewBox="0 0 48 48"><rect width="48" height="48" fill="none"/><circle cx="24" cy="24" r="24" fill="#29b994"/><path d="M26.375,5.938A20.438,20.438,0,1,1,5.938,26.375,20.437,20.437,0,0,1,26.375,5.938Zm0,.563A19.875,19.875,0,1,0,46.25,26.375,19.875,19.875,0,0,0,26.375,6.5Z" transform="translate(-2.375 -2.375)" fill="#fff" opacity="0.9"/><path d="M41.078,22.734v4.734H34.562v2.738c5.125.271,8.953,1.345,8.953,2.63s-3.828,2.359-8.953,2.63v8.6H29.453v-8.6c-5.1-.275-8.906-1.347-8.906-2.627s3.8-2.352,8.906-2.627v-2.74H22.984V22.734ZM21.53,32.807c0,1.056,4.688,1.913,10.472,1.913s10.472-.856,10.472-1.913c0-.9-3.366-1.647-7.911-1.855v2.892H29.453V30.951C24.9,31.159,21.53,31.911,21.53,32.807Z" transform="translate(-8.219 -9.094)" fill="#fff" fill-rule="evenodd"/></svg>